<svg width="800" height="620" xmlns="http://www.w3.org/2000/svg" version="1.1"><g transform="translate(0,10)"><g><path class="link" d="M13,323.13984168865437C400,323.13984168865437 400,48.021108179419585 787,48.021108179419585" style="stroke-width: 13.6412; fill: none; stroke: rgb(0, 122, 255); stroke-opacity: 0.4;"></path><path class="link" d="M13,236.44459102902374C400,236.44459102902374 400,36.484168865435414 787,36.484168865435414" style="stroke-width: 9.43272; fill: none; stroke: rgb(255, 204, 0); stroke-opacity: 0.4;"></path><path class="link" d="M13,129.36015831134566C400,129.36015831134566 400,27.196569920844382 787,27.196569920844382" style="stroke-width: 9.14248; fill: none; stroke: rgb(255, 59, 48); stroke-opacity: 0.4;"></path><path class="link" d="M13,413.1002638522428C400,413.1002638522428 400,58.905013192612195 787,58.905013192612195" style="stroke-width: 8.12665; fill: none; stroke: rgb(255, 149, 0); stroke-opacity: 0.4;"></path><path class="link" d="M13,376.32585751978894C400,376.32585751978894 400,405.6002638522428 787,405.6002638522428" style="stroke-width: 7.69129; fill: none; stroke: rgb(0, 122, 255); stroke-opacity: 0.4;"></path><path class="link" d="M13,185.8839050131926C400,185.8839050131926 400,392.3218997361478 787,392.3218997361478" style="stroke-width: 7.54617; fill: none; stroke: rgb(255, 59, 48); stroke-opacity: 0.4;"></path><path class="link" d="M13,333.29815303430075C400,333.29815303430075 400,84.14248021108185 787,84.14248021108185" style="stroke-width: 6.67546; fill: none; stroke: rgb(0, 122, 255); stroke-opacity: 0.4;"></path><path class="link" d="M13,446.1873350923483C400,446.1873350923483 400,267.0316622691293 787,267.0316622691293" style="stroke-width: 6.67546; fill: none; stroke: rgb(255, 149, 0); stroke-opacity: 0.4;"></path><path class="link" d="M13,365.4419525065963C400,365.4419525065963 400,309.1622691292876 787,309.1622691292876" style="stroke-width: 6.24011; fill: none; stroke: rgb(0, 122, 255); stroke-opacity: 0.4;"></path><path class="link" d="M13,457.5791556728232C400,457.5791556728232 400,412.56596306068604 787,412.56596306068604" style="stroke-width: 6.24011; fill: none; stroke: rgb(255, 149, 0); stroke-opacity: 0.4;"></path><path class="link" d="M13,158.52902374670185C400,158.52902374670185 400,249.9802110817942 787,249.9802110817942" style="stroke-width: 6.24011; fill: none; stroke: rgb(255, 59, 48); stroke-opacity: 0.4;"></path><path class="link" d="M13,350.7124010554089C400,350.7124010554089 400,233.8126649076517 787,233.8126649076517" style="stroke-width: 6.09499; fill: none; stroke: rgb(0, 122, 255); stroke-opacity: 0.4;"></path><path class="link" d="M13,272.8693931398417C400,272.8693931398417 400,303.06728232189977 787,303.06728232189977" style="stroke-width: 5.94987; fill: none; stroke: rgb(255, 204, 0); stroke-opacity: 0.4;"></path><path class="link" d="M13,164.6240105540897C400,164.6240105540897 400,297.11741424802113 787,297.11741424802113" style="stroke-width: 5.94987; fill: none; stroke: rgb(255, 59, 48); stroke-opacity: 0.4;"></path><path class="link" d="M13,339.5382585751979C400,339.5382585751979 400,180.14511873350924 787,180.14511873350924" style="stroke-width: 5.80475; fill: none; stroke: rgb(0, 122, 255); stroke-opacity: 0.4;"></path><path class="link" d="M13,266.99208443271766C400,266.99208443271766 400,256.00263852242745 787,256.00263852242745" style="stroke-width: 5.80475; fill: none; stroke: rgb(255, 204, 0); stroke-opacity: 0.4;"></path><path class="link" d="M13,281.5765171503957C400,281.5765171503957 400,398.92480211081795 787,398.92480211081795" style="stroke-width: 5.65963; fill: none; stroke: rgb(255, 204, 0); stroke-opacity: 0.4;"></path><path class="link" d="M13,436.3918205804749C400,436.3918205804749 400,185.87730870712403 787,185.87730870712403" style="stroke-width: 5.65963; fill: none; stroke: rgb(255, 149, 0); stroke-opacity: 0.4;"></path><path class="link" d="M13,392.28891820580475C400,392.28891820580475 400,556.1279683377309 787,556.1279683377309" style="stroke-width: 5.36939; fill: none; stroke: rgb(0, 122, 255); stroke-opacity: 0.4;"></path><path class="link" d="M13,419.8482849604222C400,419.8482849604222 400,90.16490765171508 787,90.16490765171508" style="stroke-width: 5.36939; fill: none; stroke: rgb(255, 149, 0); stroke-opacity: 0.4;"></path><path class="link" d="M13,345.0527704485488C400,345.0527704485488 400,210.60686015831135 787,210.60686015831135" style="stroke-width: 5.22427; fill: none; stroke: rgb(0, 122, 255); stroke-opacity: 0.4;"></path><path class="link" d="M13,451.99208443271766C400,451.99208443271766 400,314.74934036939317 787,314.74934036939317" style="stroke-width: 4.93404; fill: none; stroke: rgb(255, 149, 0); stroke-opacity: 0.4;"></path><path class="link" d="M13,208.95778364116092C400,208.95778364116092 400,530.6728232189975 787,530.6728232189975" style="stroke-width: 4.93404; fill: none; stroke: rgb(255, 59, 48); stroke-opacity: 0.4;"></path><path class="link" d="M13,153.01451187335093C400,153.01451187335093 400,201.10158311345648 787,201.10158311345648" style="stroke-width: 4.78892; fill: none; stroke: rgb(255, 59, 48); stroke-opacity: 0.4;"></path><path class="link" d="M13,122.39445910290237C400,122.39445910290237 400,2.3944591029024314 787,2.3944591029024314" style="stroke-width: 4.78892; fill: none; stroke: rgb(255, 59, 48); stroke-opacity: 0.4;"></path><path class="link" d="M13,356.15435356200527C400,356.15435356200527 400,261.29947229551453 787,261.29947229551453" style="stroke-width: 4.78892; fill: none; stroke: rgb(0, 122, 255); stroke-opacity: 0.4;"></path><path class="link" d="M13,382.565963060686C400,382.565963060686 400,490.7189973614777 787,490.7189973614777" style="stroke-width: 4.78892; fill: none; stroke: rgb(0, 122, 255); stroke-opacity: 0.4;"></path><path class="link" d="M13,204.09630606860156C400,204.09630606860156 400,508.4102902374671 787,508.4102902374671" style="stroke-width: 4.78892; fill: none; stroke: rgb(255, 59, 48); stroke-opacity: 0.4;"></path><path class="link" d="M13,289.9208443271768C400,289.9208443271768 400,486.00263852242756 787,486.00263852242756" style="stroke-width: 4.6438; fill: none; stroke: rgb(255, 204, 0); stroke-opacity: 0.4;"></path><path class="link" d="M13,148.2981530343008C400,148.2981530343008 400,170.42216358839053 787,170.42216358839053" style="stroke-width: 4.6438; fill: none; stroke: rgb(255, 59, 48); stroke-opacity: 0.4;"></path><path class="link" d="M13,387.28232189973613C400,387.28232189973613 400,535.4617414248022 787,535.4617414248022" style="stroke-width: 4.6438; fill: none; stroke: rgb(0, 122, 255); stroke-opacity: 0.4;"></path><path class="link" d="M13,477.7506596306069C400,477.7506596306069 400,597.750659630607 787,597.750659630607" style="stroke-width: 4.49868; fill: none; stroke: rgb(255, 149, 0); stroke-opacity: 0.4;"></path><path class="link" d="M13,169.84828496042215C400,169.84828496042215 400,329.4656992084433 787,329.4656992084433" style="stroke-width: 4.49868; fill: none; stroke: rgb(255, 59, 48); stroke-opacity: 0.4;"></path><path class="link" d="M13,199.45250659630605C400,199.45250659630605 400,481.4313984168867 787,481.4313984168867" style="stroke-width: 4.49868; fill: none; stroke: rgb(255, 59, 48); stroke-opacity: 0.4;"></path><path class="link" d="M13,257.9221635883905C400,257.9221635883905 400,205.745382585752 787,205.745382585752" style="stroke-width: 4.49868; fill: none; stroke: rgb(255, 204, 0); stroke-opacity: 0.4;"></path><path class="link" d="M13,253.4234828496042C400,253.4234828496042 400,174.9934036939314 787,174.9934036939314" style="stroke-width: 4.49868; fill: none; stroke: rgb(255, 204, 0); stroke-opacity: 0.4;"></path><path class="link" d="M13,191.83377308707125C400,191.83377308707125 400,427.86279683377313 787,427.86279683377313" style="stroke-width: 4.35356; fill: none; stroke: rgb(255, 59, 48); stroke-opacity: 0.4;"></path><path class="link" d="M13,136.03562005277044C400,136.03562005277044 400,75.07255936675466 787,75.07255936675466" style="stroke-width: 4.20844; fill: none; stroke: rgb(255, 59, 48); stroke-opacity: 0.4;"></path><path class="link" d="M13,431.457783641161C400,431.457783641161 400,155.99604221635886 787,155.99604221635886" style="stroke-width: 4.20844; fill: none; stroke: rgb(255, 149, 0); stroke-opacity: 0.4;"></path><path class="link" d="M13,143.94459102902374C400,143.94459102902374 400,151.86015831134569 787,151.86015831134569" style="stroke-width: 4.06332; fill: none; stroke: rgb(255, 59, 48); stroke-opacity: 0.4;"></path><path class="link" d="M13,407.0052770448549C400,407.0052770448549 400,10.5936675461742 787,10.5936675461742" style="stroke-width: 4.06332; fill: none; stroke: rgb(255, 149, 0); stroke-opacity: 0.4;"></path><path class="link" d="M13,427.32189973614777C400,427.32189973614777 400,125.03957783641165 787,125.03957783641165" style="stroke-width: 4.06332; fill: none; stroke: rgb(255, 149, 0); stroke-opacity: 0.4;"></path><path class="link" d="M13,370.5211081794195C400,370.5211081794195 400,376.58970976253306 787,376.58970976253306" style="stroke-width: 3.91821; fill: none; stroke: rgb(0, 122, 255); stroke-opacity: 0.4;"></path><path class="link" d="M13,216.57651715039574C400,216.57651715039574 400,573.8192612137203 787,573.8192612137203" style="stroke-width: 3.91821; fill: none; stroke: rgb(255, 59, 48); stroke-opacity: 0.4;"></path><path class="link" d="M13,300.58707124010556C400,300.58707124010556 400,593.542216358839 787,593.542216358839" style="stroke-width: 3.91821; fill: none; stroke: rgb(255, 204, 0); stroke-opacity: 0.4;"></path><path class="link" d="M13,262.1306068601583C400,262.1306068601583 400,228.80606860158312 787,228.80606860158312" style="stroke-width: 3.91821; fill: none; stroke: rgb(255, 204, 0); stroke-opacity: 0.4;"></path><path class="link" d="M13,294.12928759894453C400,294.12928759894453 400,512.6912928759896 787,512.6912928759896" style="stroke-width: 3.77309; fill: none; stroke: rgb(255, 204, 0); stroke-opacity: 0.4;"></path><path class="link" d="M13,360.4353562005277C400,360.4353562005277 400,282.2559366754617 787,282.2559366754617" style="stroke-width: 3.77309; fill: none; stroke: rgb(0, 122, 255); stroke-opacity: 0.4;"></path><path class="link" d="M13,314.43271767810023C400,314.43271767810023 400,6.675461741424859 787,6.675461741424859" style="stroke-width: 3.77309; fill: none; stroke: rgb(0, 122, 255); stroke-opacity: 0.4;"></path><path class="link" d="M13,140.0263852242744C400,140.0263852242744 400,117.49340369393144 787,117.49340369393144" style="stroke-width: 3.77309; fill: none; stroke: rgb(255, 59, 48); stroke-opacity: 0.4;"></path><path class="link" d="M13,441.03562005277047C400,441.03562005277047 400,215.03298153034302 787,215.03298153034302" style="stroke-width: 3.62797; fill: none; stroke: rgb(255, 149, 0); stroke-opacity: 0.4;"></path><path class="link" d="M13,468.17282321899734C400,468.17282321899734 400,516.391820580475 787,516.391820580475" style="stroke-width: 3.62797; fill: none; stroke: rgb(255, 149, 0); stroke-opacity: 0.4;"></path><path class="link" d="M13,242.9749340369393C400,242.9749340369393 400,78.990765171504 787,78.990765171504" style="stroke-width: 3.62797; fill: none; stroke: rgb(255, 204, 0); stroke-opacity: 0.4;"></path><path class="link" d="M13,246.60290237467015C400,246.60290237467015 400,121.19393139841692 787,121.19393139841692" style="stroke-width: 3.62797; fill: none; stroke: rgb(255, 204, 0); stroke-opacity: 0.4;"></path><path class="link" d="M13,180.3693931398417C400,180.3693931398417 400,372.88918205804754 787,372.88918205804754" style="stroke-width: 3.48285; fill: none; stroke: rgb(255, 59, 48); stroke-opacity: 0.4;"></path><path class="link" d="M13,176.95910290237467C400,176.95910290237467 400,356.57651715039583 787,356.57651715039583" style="stroke-width: 3.33773; fill: none; stroke: rgb(255, 59, 48); stroke-opacity: 0.4;"></path><path class="link" d="M13,195.60686015831132C400,195.60686015831132 400,454.82849604221644 787,454.82849604221644" style="stroke-width: 3.19261; fill: none; stroke: rgb(255, 59, 48); stroke-opacity: 0.4;"></path><path class="link" d="M13,213.0211081794195C400,213.0211081794195 400,551.8469656992086 787,551.8469656992086" style="stroke-width: 3.19261; fill: none; stroke: rgb(255, 59, 48); stroke-opacity: 0.4;"></path><path class="link" d="M13,220.131926121372C400,220.131926121372 400,589.9868073878629 787,589.9868073878629" style="stroke-width: 3.19261; fill: none; stroke: rgb(255, 59, 48); stroke-opacity: 0.4;"></path><path class="link" d="M13,173.69393139841688C400,173.69393139841688 400,343.311345646438 787,343.311345646438" style="stroke-width: 3.19261; fill: none; stroke: rgb(255, 59, 48); stroke-opacity: 0.4;"></path><path class="link" d="M13,286.0026385224274C400,286.0026385224274 400,441.63588390501326 787,441.63588390501326" style="stroke-width: 3.19261; fill: none; stroke: rgb(255, 204, 0); stroke-opacity: 0.4;"></path><path class="link" d="M13,473.97757255936676C400,473.97757255936676 400,560.3364116094988 787,560.3364116094988" style="stroke-width: 3.04749; fill: none; stroke: rgb(255, 149, 0); stroke-opacity: 0.4;"></path><path class="link" d="M13,277.29551451187336C400,277.29551451187336 400,359.69656992084435 787,359.69656992084435" style="stroke-width: 2.90237; fill: none; stroke: rgb(255, 204, 0); stroke-opacity: 0.4;"></path><path class="link" d="M13,464.9076517150396C400,464.9076517150396 400,494.56464379947244 787,494.56464379947244" style="stroke-width: 2.90237; fill: none; stroke: rgb(255, 149, 0); stroke-opacity: 0.4;"></path><path class="link" d="M13,423.9116094986808C400,423.9116094986808 400,104.22823218997365 787,104.22823218997365" style="stroke-width: 2.75726; fill: none; stroke: rgb(255, 149, 0); stroke-opacity: 0.4;"></path><path class="link" d="M13,462.07783641160955C400,462.07783641160955 400,467.8034300791558 787,467.8034300791558" style="stroke-width: 2.75726; fill: none; stroke: rgb(255, 149, 0); stroke-opacity: 0.4;"></path><path class="link" d="M13,249.79551451187334C400,249.79551451187334 400,138.44986807387866 787,138.44986807387866" style="stroke-width: 2.75726; fill: none; stroke: rgb(255, 204, 0); stroke-opacity: 0.4;"></path><path class="link" d="M13,297.3218997361477C400,297.3218997361477 400,577.0844327176782 787,577.0844327176782" style="stroke-width: 2.61214; fill: none; stroke: rgb(255, 204, 0); stroke-opacity: 0.4;"></path><path class="link" d="M13,471.2203166226913C400,471.2203166226913 400,539.0171503957785 787,539.0171503957785" style="stroke-width: 2.46702; fill: none; stroke: rgb(255, 149, 0); stroke-opacity: 0.4;"></path></g><g><g class="node" transform="translate(0,120)"><rect height="101.72823218997361" width="13"><title>2010
701</title></rect><text x="19" y="50.864116094986805" dy=".35em" text-anchor="start" style="font-size: 11px; font-family: Arial, Helvetica; pointer-events: none;">2010</text></g><g class="node" transform="translate(0,231.7282321899736)"><rect height="70.81794195250659" width="13"><title>2011
488</title></rect><text x="19" y="35.40897097625329" dy=".35em" text-anchor="start" style="font-size: 11px; font-family: Arial, Helvetica; pointer-events: none;">2011</text></g><g class="node" transform="translate(0,312.5461741424802)"><rect height="82.42744063324538" width="13"><title>2012
568</title></rect><text x="19" y="41.21372031662269" dy=".35em" text-anchor="start" style="font-size: 11px; font-family: Arial, Helvetica; pointer-events: none;">2012</text></g><g class="node" transform="translate(0,404.9736147757256)"><rect height="75.0263852242744" width="13"><title>2013
517</title></rect><text x="19" y="37.5131926121372" dy=".35em" text-anchor="start" style="font-size: 11px; font-family: Arial, Helvetica; pointer-events: none;">2013</text></g><g class="node" transform="translate(787,5.684341886080802e-14)"><rect height="12.625329815303429" width="13" style="fill: rgb(102, 102, 102);"><title>calidad
87</title></rect><text x="-6" y="6.3126649076517145" dy=".35em" text-anchor="end" style="font-size: 11px; font-family: Arial, Helvetica; pointer-events: none;">calidad</text></g><g class="node" transform="translate(787,22.625329815303488)"><rect height="40.34300791556728" width="13" style="fill: rgb(102, 102, 102);"><title>chile
278</title></rect><text x="-6" y="20.17150395778364" dy=".35em" text-anchor="end" style="font-size: 11px; font-family: Arial, Helvetica; pointer-events: none;">chile</text></g><g class="node" transform="translate(787,72.96833773087076)"><rect height="19.88126649076517" width="13" style="fill: rgb(102, 102, 102);"><title>chilenos
137</title></rect><text x="-6" y="9.940633245382585" dy=".35em" text-anchor="end" style="font-size: 11px; font-family: Arial, Helvetica; pointer-events: none;">chilenos</text></g><g class="node" transform="translate(787,102.84960422163593)"><rect height="2.7572559366754614" width="13" style="fill: rgb(102, 102, 102);"><title>compatriotas
19</title></rect><text x="-6" y="1.3786279683377307" dy=".35em" text-anchor="end" style="font-size: 11px; font-family: Arial, Helvetica; pointer-events: none;">compatriotas</text></g><g class="node" transform="translate(787,115.60686015831139)"><rect height="11.464379947229551" width="13" style="fill: rgb(102, 102, 102);"><title>congreso
79</title></rect><text x="-6" y="5.7321899736147754" dy=".35em" text-anchor="end" style="font-size: 11px; font-family: Arial, Helvetica; pointer-events: none;">congreso</text></g><g class="node" transform="translate(787,137.07124010554094)"><rect height="2.7572559366754614" width="13" style="fill: rgb(102, 102, 102);"><title>derechos
19</title></rect><text x="-6" y="1.3786279683377307" dy=".35em" text-anchor="end" style="font-size: 11px; font-family: Arial, Helvetica; pointer-events: none;">derechos</text></g><g class="node" transform="translate(787,149.8284960422164)"><rect height="8.271767810026384" width="13" style="fill: rgb(102, 102, 102);"><title>desarrollo
57</title></rect><text x="-6" y="4.135883905013192" dy=".35em" text-anchor="end" style="font-size: 11px; font-family: Arial, Helvetica; pointer-events: none;">desarrollo</text></g><g class="node" transform="translate(787,168.10026385224276)"><rect height="20.606860158311346" width="13" style="fill: rgb(102, 102, 102);"><title>educación
142</title></rect><text x="-6" y="10.303430079155673" dy=".35em" text-anchor="end" style="font-size: 11px; font-family: Arial, Helvetica; pointer-events: none;">educación</text></g><g class="node" transform="translate(787,198.7071240105541)"><rect height="18.139841688654354" width="13" style="fill: rgb(102, 102, 102);"><title>estado
125</title></rect><text x="-6" y="9.069920844327177" dy=".35em" text-anchor="end" style="font-size: 11px; font-family: Arial, Helvetica; pointer-events: none;">estado</text></g><g class="node" transform="translate(787,226.84696569920845)"><rect height="10.013192612137203" width="13" style="fill: rgb(102, 102, 102);"><title>familias
69</title></rect><text x="-6" y="5.006596306068602" dy=".35em" text-anchor="end" style="font-size: 11px; font-family: Arial, Helvetica; pointer-events: none;">familias</text></g><g class="node" transform="translate(787,246.86015831134566)"><rect height="23.50923482849604" width="13" style="fill: rgb(102, 102, 102);"><title>gobierno
162</title></rect><text x="-6" y="11.75461741424802" dy=".35em" text-anchor="end" style="font-size: 11px; font-family: Arial, Helvetica; pointer-events: none;">gobierno</text></g><g class="node" transform="translate(787,280.3693931398417)"><rect height="3.7730870712401052" width="13" style="fill: rgb(102, 102, 102);"><title>jóvenes
26</title></rect><text x="-6" y="1.8865435356200526" dy=".35em" text-anchor="end" style="font-size: 11px; font-family: Arial, Helvetica; pointer-events: none;">jóvenes</text></g><g class="node" transform="translate(787,294.1424802110818)"><rect height="23.073878627968337" width="13" style="fill: rgb(102, 102, 102);"><title>ley
159</title></rect><text x="-6" y="11.536939313984169" dy=".35em" text-anchor="end" style="font-size: 11px; font-family: Arial, Helvetica; pointer-events: none;">ley</text></g><g class="node" transform="translate(787,327.21635883905014)"><rect height="4.4986807387862795" width="13" style="fill: rgb(102, 102, 102);"><title>materia
31</title></rect><text x="-6" y="2.2493403693931397" dy=".35em" text-anchor="end" style="font-size: 11px; font-family: Arial, Helvetica; pointer-events: none;">materia</text></g><g class="node" transform="translate(787,341.7150395778364)"><rect height="3.192612137203166" width="13" style="fill: rgb(102, 102, 102);"><title>millones
22</title></rect><text x="-6" y="1.596306068601583" dy=".35em" text-anchor="end" style="font-size: 11px; font-family: Arial, Helvetica; pointer-events: none;">millones</text></g><g class="node" transform="translate(787,354.9076517150396)"><rect height="6.240105540897098" width="13" style="fill: rgb(102, 102, 102);"><title>nacional
43</title></rect><text x="-6" y="3.120052770448549" dy=".35em" text-anchor="end" style="font-size: 11px; font-family: Arial, Helvetica; pointer-events: none;">nacional</text></g><g class="node" transform="translate(787,371.1477572559367)"><rect height="7.401055408970976" width="13" style="fill: rgb(102, 102, 102);"><title>oportunidades
51</title></rect><text x="-6" y="3.700527704485488" dy=".35em" text-anchor="end" style="font-size: 11px; font-family: Arial, Helvetica; pointer-events: none;">oportunidades</text></g><g class="node" transform="translate(787,388.5488126649077)"><rect height="27.13720316622691" width="13" style="fill: rgb(102, 102, 102);"><title>país
187</title></rect><text x="-6" y="13.568601583113455" dy=".35em" text-anchor="end" style="font-size: 11px; font-family: Arial, Helvetica; pointer-events: none;">país</text></g><g class="node" transform="translate(787,425.6860158311346)"><rect height="4.353562005277045" width="13" style="fill: rgb(102, 102, 102);"><title>personas
30</title></rect><text x="-6" y="2.1767810026385224" dy=".35em" text-anchor="end" style="font-size: 11px; font-family: Arial, Helvetica; pointer-events: none;">personas</text></g><g class="node" transform="translate(787,440.0395778364117)"><rect height="3.192612137203166" width="13" style="fill: rgb(102, 102, 102);"><title>plan
22</title></rect><text x="-6" y="1.596306068601583" dy=".35em" text-anchor="end" style="font-size: 11px; font-family: Arial, Helvetica; pointer-events: none;">plan</text></g><g class="node" transform="translate(787,453.2321899736149)"><rect height="3.192612137203166" width="13" style="fill: rgb(102, 102, 102);"><title>pobreza
22</title></rect><text x="-6" y="1.596306068601583" dy=".35em" text-anchor="end" style="font-size: 11px; font-family: Arial, Helvetica; pointer-events: none;">pobreza</text></g><g class="node" transform="translate(787,466.42480211081806)"><rect height="2.7572559366754614" width="13" style="fill: rgb(102, 102, 102);"><title>programa
19</title></rect><text x="-6" y="1.3786279683377307" dy=".35em" text-anchor="end" style="font-size: 11px; font-family: Arial, Helvetica; pointer-events: none;">programa</text></g><g class="node" transform="translate(787,479.1820580474935)"><rect height="16.83377308707124" width="13" style="fill: rgb(102, 102, 102);"><title>proyecto
116</title></rect><text x="-6" y="8.41688654353562" dy=".35em" text-anchor="end" style="font-size: 11px; font-family: Arial, Helvetica; pointer-events: none;">proyecto</text></g><g class="node" transform="translate(787,506.01583113456473)"><rect height="12.189973614775726" width="13" style="fill: rgb(102, 102, 102);"><title>salud
84</title></rect><text x="-6" y="6.094986807387863" dy=".35em" text-anchor="end" style="font-size: 11px; font-family: Arial, Helvetica; pointer-events: none;">salud</text></g><g class="node" transform="translate(787,528.2058047493405)"><rect height="12.04485488126649" width="13" style="fill: rgb(102, 102, 102);"><title>sistema
83</title></rect><text x="-6" y="6.022427440633245" dy=".35em" text-anchor="end" style="font-size: 11px; font-family: Arial, Helvetica; pointer-events: none;">sistema</text></g><g class="node" transform="translate(787,550.250659630607)"><rect height="11.609498680738785" width="13" style="fill: rgb(102, 102, 102);"><title>sociedad
80</title></rect><text x="-6" y="5.804749340369392" dy=".35em" text-anchor="end" style="font-size: 11px; font-family: Arial, Helvetica; pointer-events: none;">sociedad</text></g><g class="node" transform="translate(787,571.8601583113457)"><rect height="6.530343007915567" width="13" style="fill: rgb(102, 102, 102);"><title>trabajo
45</title></rect><text x="-6" y="3.2651715039577835" dy=".35em" text-anchor="end" style="font-size: 11px; font-family: Arial, Helvetica; pointer-events: none;">trabajo</text></g><g class="node" transform="translate(787,588.3905013192613)"><rect height="11.609498680738785" width="13" style="fill: rgb(102, 102, 102);"><title>vida
80</title></rect><text x="-6" y="5.804749340369392" dy=".35em" text-anchor="end" style="font-size: 11px; font-family: Arial, Helvetica; pointer-events: none;">vida</text></g></g></g></svg>