<svg width="800" height="620" xmlns="http://www.w3.org/2000/svg" version="1.1"><g transform="translate(0,10)"><g><path class="link" d="M10,380.69667431192664C400,380.69667431192664 400,354.53268348623857 790,354.53268348623857" style="stroke-width: 11.8521; fill: none; stroke: rgb(29, 98, 240); stroke-opacity: 0.4;"></path><path class="link" d="M10,153.95642201834866C400,153.95642201834866 400,334.0711009174312 790,334.0711009174312" style="stroke-width: 11.6284; fill: none; stroke: rgb(29, 98, 240); stroke-opacity: 0.4;"></path><path class="link" d="M10,457.8956422018349C400,457.8956422018349 400,230.33830275229363 790,230.33830275229363" style="stroke-width: 10.2867; fill: none; stroke: rgb(255, 204, 0); stroke-opacity: 0.4;"></path><path class="link" d="M10,475.4501146788991C400,475.4501146788991 400,365.266628440367 790,365.266628440367" style="stroke-width: 9.61583; fill: none; stroke: rgb(255, 204, 0); stroke-opacity: 0.4;"></path><path class="link" d="M10,128.79873853211012C400,128.79873853211012 400,204.06250000000006 790,204.06250000000006" style="stroke-width: 9.61583; fill: none; stroke: rgb(29, 98, 240); stroke-opacity: 0.4;"></path><path class="link" d="M10,363.92488532110093C400,363.92488532110093 400,284.4409403669725 790,284.4409403669725" style="stroke-width: 9.61583; fill: none; stroke: rgb(29, 98, 240); stroke-opacity: 0.4;"></path><path class="link" d="M10,341.2270642201835C400,341.2270642201835 400,184.55848623853214 790,184.55848623853214" style="stroke-width: 9.3922; fill: none; stroke: rgb(29, 98, 240); stroke-opacity: 0.4;"></path><path class="link" d="M10,262.4627293577982C400,262.4627293577982 400,275.0487385321101 790,275.0487385321101" style="stroke-width: 9.16858; fill: none; stroke: rgb(255, 204, 0); stroke-opacity: 0.4;"></path><path class="link" d="M10,138.1909403669725C400,138.1909403669725 400,265.88016055045875 790,265.88016055045875" style="stroke-width: 9.16858; fill: none; stroke: rgb(29, 98, 240); stroke-opacity: 0.4;"></path><path class="link" d="M10,253.40596330275233C400,253.40596330275233 400,213.34288990825692 790,213.34288990825692" style="stroke-width: 8.94495; fill: none; stroke: rgb(255, 204, 0); stroke-opacity: 0.4;"></path><path class="link" d="M10,324.0080275229358C400,324.0080275229358 400,112.67775229357804 790,112.67775229357804" style="stroke-width: 8.94495; fill: none; stroke: rgb(29, 98, 240); stroke-opacity: 0.4;"></path><path class="link" d="M10,271.4076834862385C400,271.4076834862385 400,344.2459862385321 790,344.2459862385321" style="stroke-width: 8.72133; fill: none; stroke: rgb(255, 204, 0); stroke-opacity: 0.4;"></path><path class="link" d="M10,442.80103211009174C400,442.80103211009174 400,121.5108944954129 790,121.5108944954129" style="stroke-width: 8.72133; fill: none; stroke: rgb(255, 204, 0); stroke-opacity: 0.4;"></path><path class="link" d="M10,405.29529816513764C400,405.29529816513764 400,543.2138761467891 790,543.2138761467891" style="stroke-width: 8.27408; fill: none; stroke: rgb(29, 98, 240); stroke-opacity: 0.4;"></path><path class="link" d="M10,332.5057339449541C400,332.5057339449541 400,154.20871559633034 790,154.20871559633034" style="stroke-width: 8.05046; fill: none; stroke: rgb(29, 98, 240); stroke-opacity: 0.4;"></path><path class="link" d="M10,189.5126146788991C400,189.5126146788991 400,509.39793577981646 790,509.39793577981646" style="stroke-width: 7.60321; fill: none; stroke: rgb(29, 98, 240); stroke-opacity: 0.4;"></path><path class="link" d="M10,466.8405963302752C400,466.8405963302752 400,293.05045871559633 790,293.05045871559633" style="stroke-width: 7.60321; fill: none; stroke: rgb(255, 204, 0); stroke-opacity: 0.4;"></path><path class="link" d="M10,120.30103211009177C400,120.30103211009177 400,139.56135321100922 790,139.56135321100922" style="stroke-width: 7.37959; fill: none; stroke: rgb(29, 98, 240); stroke-opacity: 0.4;"></path><path class="link" d="M10,93.68979357798167C400,93.68979357798167 400,3.689793577981708 790,3.689793577981708" style="stroke-width: 7.37959; fill: none; stroke: rgb(29, 98, 240); stroke-opacity: 0.4;"></path><path class="link" d="M10,390.31250000000006C400,390.31250000000006 400,458.64965596330273 790,458.64965596330273" style="stroke-width: 7.37959; fill: none; stroke: rgb(29, 98, 240); stroke-opacity: 0.4;"></path><path class="link" d="M10,182.02121559633028C400,182.02121559633028 400,480.5017201834862 790,480.5017201834862" style="stroke-width: 7.37959; fill: none; stroke: rgb(29, 98, 240); stroke-opacity: 0.4;"></path><path class="link" d="M10,349.6129587155964C400,349.6129587155964 400,221.50516055045875 790,221.50516055045875" style="stroke-width: 7.37959; fill: none; stroke: rgb(29, 98, 240); stroke-opacity: 0.4;"></path><path class="link" d="M10,397.5802752293578C400,397.5802752293578 400,516.7775229357798 790,516.7775229357798" style="stroke-width: 7.15596; fill: none; stroke: rgb(29, 98, 240); stroke-opacity: 0.4;"></path><path class="link" d="M10,284.2660550458716C400,284.2660550458716 400,451.3818807339449 790,451.3818807339449" style="stroke-width: 7.15596; fill: none; stroke: rgb(255, 204, 0); stroke-opacity: 0.4;"></path><path class="link" d="M10,113.03325688073397C400,113.03325688073397 400,97.69495412844043 790,97.69495412844043" style="stroke-width: 7.15596; fill: none; stroke: rgb(29, 98, 240); stroke-opacity: 0.4;"></path><path class="link" d="M10,506.5338302752294C400,506.5338302752294 400,596.5338302752294 790,596.5338302752294" style="stroke-width: 6.93234; fill: none; stroke: rgb(255, 204, 0); stroke-opacity: 0.4;"></path><path class="link" d="M10,232.49713302752298C400,232.49713302752298 400,104.73910550458722 790,104.73910550458722" style="stroke-width: 6.93234; fill: none; stroke: rgb(255, 204, 0); stroke-opacity: 0.4;"></path><path class="link" d="M10,239.42947247706425C400,239.42947247706425 400,146.71731651376152 790,146.71731651376152" style="stroke-width: 6.93234; fill: none; stroke: rgb(255, 204, 0); stroke-opacity: 0.4;"></path><path class="link" d="M10,174.865252293578C400,174.865252293578 400,444.3377293577981 790,444.3377293577981" style="stroke-width: 6.93234; fill: none; stroke: rgb(29, 98, 240); stroke-opacity: 0.4;"></path><path class="link" d="M10,163.125C400,163.125 400,383.4288990825688 790,383.4288990825688" style="stroke-width: 6.70872; fill: none; stroke: rgb(29, 98, 240); stroke-opacity: 0.4;"></path><path class="link" d="M10,435.19782110091745C400,435.19782110091745 400,80.87442660550464 790,80.87442660550464" style="stroke-width: 6.48509; fill: none; stroke: rgb(255, 204, 0); stroke-opacity: 0.4;"></path><path class="link" d="M10,106.3245412844037C400,106.3245412844037 400,74.50114678899088 790,74.50114678899088" style="stroke-width: 6.26147; fill: none; stroke: rgb(29, 98, 240); stroke-opacity: 0.4;"></path><path class="link" d="M10,422.5630733944954C400,422.5630733944954 400,16.32454128440373 790,16.32454128440373" style="stroke-width: 6.26147; fill: none; stroke: rgb(255, 204, 0); stroke-opacity: 0.4;"></path><path class="link" d="M10,428.82454128440367C400,428.82454128440367 400,43.99082568807346 790,43.99082568807346" style="stroke-width: 6.26147; fill: none; stroke: rgb(255, 204, 0); stroke-opacity: 0.4;"></path><path class="link" d="M10,245.91456422018354C400,245.91456422018354 400,176.84346330275235 790,176.84346330275235" style="stroke-width: 6.03784; fill: none; stroke: rgb(255, 204, 0); stroke-opacity: 0.4;"></path><path class="link" d="M10,371.75172018348627C400,371.75172018348627 400,315.23795871559633 790,315.23795871559633" style="stroke-width: 6.03784; fill: none; stroke: rgb(29, 98, 240); stroke-opacity: 0.4;"></path><path class="link" d="M10,201.2528669724771C400,201.2528669724771 400,565.0659403669724 790,565.0659403669724" style="stroke-width: 6.03784; fill: none; stroke: rgb(29, 98, 240); stroke-opacity: 0.4;"></path><path class="link" d="M10,300.7024082568808C400,300.7024082568808 400,590.0487385321101 790,590.0487385321101" style="stroke-width: 6.03784; fill: none; stroke: rgb(255, 204, 0); stroke-opacity: 0.4;"></path><path class="link" d="M10,356.2098623853211C400,356.2098623853211 400,248.38876146788994 790,248.38876146788994" style="stroke-width: 5.81422; fill: none; stroke: rgb(29, 98, 240); stroke-opacity: 0.4;"></path><path class="link" d="M10,316.6284403669725C400,316.6284403669725 400,10.286697247706478 790,10.286697247706478" style="stroke-width: 5.81422; fill: none; stroke: rgb(29, 98, 240); stroke-opacity: 0.4;"></path><path class="link" d="M10,290.7511467889908C400,290.7511467889908 400,487.09862385321094 790,487.09862385321094" style="stroke-width: 5.81422; fill: none; stroke: rgb(255, 204, 0); stroke-opacity: 0.4;"></path><path class="link" d="M10,100.28669724770646C400,100.28669724770646 400,32.36238532110097 790,32.36238532110097" style="stroke-width: 5.81422; fill: none; stroke: rgb(29, 98, 240); stroke-opacity: 0.4;"></path><path class="link" d="M10,491.7746559633028C400,491.7746559633028 400,492.80103211009174 790,492.80103211009174" style="stroke-width: 5.5906; fill: none; stroke: rgb(255, 204, 0); stroke-opacity: 0.4;"></path><path class="link" d="M10,449.9569954128441C400,449.9569954128441 400,161.0292431192661 790,161.0292431192661" style="stroke-width: 5.5906; fill: none; stroke: rgb(255, 204, 0); stroke-opacity: 0.4;"></path><path class="link" d="M10,221.98681192660553C400,221.98681192660553 400,38.06479357798171 790,38.06479357798171" style="stroke-width: 5.5906; fill: none; stroke: rgb(255, 204, 0); stroke-opacity: 0.4;"></path><path class="link" d="M10,145.4587155963303C400,145.4587155963303 400,309.5355504587156 790,309.5355504587156" style="stroke-width: 5.36697; fill: none; stroke: rgb(29, 98, 240); stroke-opacity: 0.4;"></path><path class="link" d="M10,278.22821100917434C400,278.22821100917434 400,399.24311926605503 790,399.24311926605503" style="stroke-width: 4.91972; fill: none; stroke: rgb(255, 204, 0); stroke-opacity: 0.4;"></path><path class="link" d="M10,168.93922018348624C400,168.93922018348624 400,414.1628440366972 790,414.1628440366972" style="stroke-width: 4.91972; fill: none; stroke: rgb(29, 98, 240); stroke-opacity: 0.4;"></path><path class="link" d="M10,206.7316513761468C400,206.7316513761468 400,584.5699541284404 790,584.5699541284404" style="stroke-width: 4.91972; fill: none; stroke: rgb(29, 98, 240); stroke-opacity: 0.4;"></path><path class="link" d="M10,195.77408256880736C400,195.77408256880736 400,536.6169724770642 790,536.6169724770642" style="stroke-width: 4.91972; fill: none; stroke: rgb(29, 98, 240); stroke-opacity: 0.4;"></path><path class="link" d="M10,500.71961009174316C400,500.71961009174316 400,549.6989678899083 790,549.6989678899083" style="stroke-width: 4.6961; fill: none; stroke: rgb(255, 204, 0); stroke-opacity: 0.4;"></path><path class="link" d="M10,486.74311926605503C400,486.74311926605503 400,464.5756880733944 790,464.5756880733944" style="stroke-width: 4.47248; fill: none; stroke: rgb(255, 204, 0); stroke-opacity: 0.4;"></path><path class="link" d="M10,482.3824541284404C400,482.3824541284404 400,428.74713302752286 790,428.74713302752286" style="stroke-width: 4.24885; fill: none; stroke: rgb(255, 204, 0); stroke-opacity: 0.4;"></path><path class="link" d="M10,226.90653669724773C400,226.90653669724773 400,59.24598623853217 790,59.24598623853217" style="stroke-width: 4.24885; fill: none; stroke: rgb(255, 204, 0); stroke-opacity: 0.4;"></path><path class="link" d="M10,295.67087155963304C400,295.67087155963304 400,570.0974770642202 790,570.0974770642202" style="stroke-width: 4.02523; fill: none; stroke: rgb(255, 204, 0); stroke-opacity: 0.4;"></path><path class="link" d="M10,496.470756880734C400,496.470756880734 400,522.2563073394494 790,522.2563073394494" style="stroke-width: 3.80161; fill: none; stroke: rgb(255, 204, 0); stroke-opacity: 0.4;"></path></g><g><g class="node" transform="translate(0,90.00000000000003)"><rect height="119.19151376146789" width="10"><title>2010
533</title></rect><text x="16" y="59.595756880733944" dy=".35em" text-anchor="start" style="font-size: 11px; font-family: Arial, Helvetica; pointer-events: none;">2010</text></g><g class="node" transform="translate(0,219.19151376146792)"><rect height="84.52981651376146" width="10"><title>2011
378</title></rect><text x="16" y="42.26490825688073" dy=".35em" text-anchor="start" style="font-size: 11px; font-family: Arial, Helvetica; pointer-events: none;">2011</text></g><g class="node" transform="translate(0,313.7213302752294)"><rect height="95.71100917431193" width="10"><title>2012
428</title></rect><text x="16" y="47.85550458715596" dy=".35em" text-anchor="start" style="font-size: 11px; font-family: Arial, Helvetica; pointer-events: none;">2012</text></g><g class="node" transform="translate(0,419.4323394495413)"><rect height="90.56766055045871" width="10"><title>2013
405</title></rect><text x="16" y="45.283830275229356" dy=".35em" text-anchor="start" style="font-size: 11px; font-family: Arial, Helvetica; pointer-events: none;">2013</text></g><g class="node" transform="translate(790,5.684341886080802e-14)"><rect height="19.4552752293578" width="10" style="fill: rgb(102, 102, 102);"><title>calidad
87</title></rect><text x="-6" y="9.7276376146789" dy=".35em" text-anchor="end" style="font-size: 11px; font-family: Arial, Helvetica; pointer-events: none;">calidad</text></g><g class="node" transform="translate(790,29.455275229357856)"><rect height="17.666284403669724" width="10" style="fill: rgb(102, 102, 102);"><title>congreso
79</title></rect><text x="-6" y="8.833142201834862" dy=".35em" text-anchor="end" style="font-size: 11px; font-family: Arial, Helvetica; pointer-events: none;">congreso</text></g><g class="node" transform="translate(790,57.12155963302758)"><rect height="4.248853211009174" width="10" style="fill: rgb(102, 102, 102);"><title>derechos
19</title></rect><text x="-6" y="2.124426605504587" dy=".35em" text-anchor="end" style="font-size: 11px; font-family: Arial, Helvetica; pointer-events: none;">derechos</text></g><g class="node" transform="translate(790,71.37041284403675)"><rect height="12.746559633027523" width="10" style="fill: rgb(102, 102, 102);"><title>desarrollo
57</title></rect><text x="-6" y="6.373279816513762" dy=".35em" text-anchor="end" style="font-size: 11px; font-family: Arial, Helvetica; pointer-events: none;">desarrollo</text></g><g class="node" transform="translate(790,94.11697247706428)"><rect height="31.7545871559633" width="10" style="fill: rgb(102, 102, 102);"><title>educación
142</title></rect><text x="-6" y="15.87729357798165" dy=".35em" text-anchor="end" style="font-size: 11px; font-family: Arial, Helvetica; pointer-events: none;">educación</text></g><g class="node" transform="translate(790,135.87155963302757)"><rect height="27.952981651376145" width="10" style="fill: rgb(102, 102, 102);"><title>estado
125</title></rect><text x="-6" y="13.976490825688073" dy=".35em" text-anchor="end" style="font-size: 11px; font-family: Arial, Helvetica; pointer-events: none;">estado</text></g><g class="node" transform="translate(790,173.82454128440372)"><rect height="15.430045871559633" width="10" style="fill: rgb(102, 102, 102);"><title>familias
69</title></rect><text x="-6" y="7.715022935779817" dy=".35em" text-anchor="end" style="font-size: 11px; font-family: Arial, Helvetica; pointer-events: none;">familias</text></g><g class="node" transform="translate(790,199.25458715596335)"><rect height="36.227064220183486" width="10" style="fill: rgb(102, 102, 102);"><title>gobierno
162</title></rect><text x="-6" y="18.113532110091743" dy=".35em" text-anchor="end" style="font-size: 11px; font-family: Arial, Helvetica; pointer-events: none;">gobierno</text></g><g class="node" transform="translate(790,245.48165137614683)"><rect height="5.814220183486238" width="10" style="fill: rgb(102, 102, 102);"><title>jóvenes
26</title></rect><text x="-6" y="2.907110091743119" dy=".35em" text-anchor="end" style="font-size: 11px; font-family: Arial, Helvetica; pointer-events: none;">jóvenes</text></g><g class="node" transform="translate(790,261.29587155963304)"><rect height="35.55619266055046" width="10" style="fill: rgb(102, 102, 102);"><title>ley
159</title></rect><text x="-6" y="17.77809633027523" dy=".35em" text-anchor="end" style="font-size: 11px; font-family: Arial, Helvetica; pointer-events: none;">ley</text></g><g class="node" transform="translate(790,306.8520642201835)"><rect height="11.404816513761467" width="10" style="fill: rgb(102, 102, 102);"><title>oportunidades
51</title></rect><text x="-6" y="5.702408256880734" dy=".35em" text-anchor="end" style="font-size: 11px; font-family: Arial, Helvetica; pointer-events: none;">oportunidades</text></g><g class="node" transform="translate(790,328.25688073394497)"><rect height="41.81766055045871" width="10" style="fill: rgb(102, 102, 102);"><title>país
187</title></rect><text x="-6" y="20.908830275229356" dy=".35em" text-anchor="end" style="font-size: 11px; font-family: Arial, Helvetica; pointer-events: none;">país</text></g><g class="node" transform="translate(790,380.07454128440367)"><rect height="6.708715596330275" width="10" style="fill: rgb(102, 102, 102);"><title>personas
30</title></rect><text x="-6" y="3.3543577981651373" dy=".35em" text-anchor="end" style="font-size: 11px; font-family: Arial, Helvetica; pointer-events: none;">personas</text></g><g class="node" transform="translate(790,396.7832568807339)"><rect height="4.919724770642202" width="10" style="fill: rgb(102, 102, 102);"><title>plan
22</title></rect><text x="-6" y="2.459862385321101" dy=".35em" text-anchor="end" style="font-size: 11px; font-family: Arial, Helvetica; pointer-events: none;">plan</text></g><g class="node" transform="translate(790,411.7029816513761)"><rect height="4.919724770642202" width="10" style="fill: rgb(102, 102, 102);"><title>pobreza
22</title></rect><text x="-6" y="2.459862385321101" dy=".35em" text-anchor="end" style="font-size: 11px; font-family: Arial, Helvetica; pointer-events: none;">pobreza</text></g><g class="node" transform="translate(790,426.62270642201827)"><rect height="4.248853211009174" width="10" style="fill: rgb(102, 102, 102);"><title>programa
19</title></rect><text x="-6" y="2.124426605504587" dy=".35em" text-anchor="end" style="font-size: 11px; font-family: Arial, Helvetica; pointer-events: none;">programa</text></g><g class="node" transform="translate(790,440.87155963302746)"><rect height="25.94036697247706" width="10" style="fill: rgb(102, 102, 102);"><title>proyecto
116</title></rect><text x="-6" y="12.97018348623853" dy=".35em" text-anchor="end" style="font-size: 11px; font-family: Arial, Helvetica; pointer-events: none;">proyecto</text></g><g class="node" transform="translate(790,476.81192660550454)"><rect height="18.78440366972477" width="10" style="fill: rgb(102, 102, 102);"><title>salud
84</title></rect><text x="-6" y="9.392201834862385" dy=".35em" text-anchor="end" style="font-size: 11px; font-family: Arial, Helvetica; pointer-events: none;">salud</text></g><g class="node" transform="translate(790,505.5963302752293)"><rect height="18.56077981651376" width="10" style="fill: rgb(102, 102, 102);"><title>sistema
83</title></rect><text x="-6" y="9.28038990825688" dy=".35em" text-anchor="end" style="font-size: 11px; font-family: Arial, Helvetica; pointer-events: none;">sistema</text></g><g class="node" transform="translate(790,534.1571100917431)"><rect height="17.889908256880734" width="10" style="fill: rgb(102, 102, 102);"><title>sociedad
80</title></rect><text x="-6" y="8.944954128440367" dy=".35em" text-anchor="end" style="font-size: 11px; font-family: Arial, Helvetica; pointer-events: none;">sociedad</text></g><g class="node" transform="translate(790,562.0470183486239)"><rect height="10.063073394495412" width="10" style="fill: rgb(102, 102, 102);"><title>trabajo
45</title></rect><text x="-6" y="5.031536697247706" dy=".35em" text-anchor="end" style="font-size: 11px; font-family: Arial, Helvetica; pointer-events: none;">trabajo</text></g><g class="node" transform="translate(790,582.1100917431193)"><rect height="17.889908256880734" width="10" style="fill: rgb(102, 102, 102);"><title>vida
80</title></rect><text x="-6" y="8.944954128440367" dy=".35em" text-anchor="end" style="font-size: 11px; font-family: Arial, Helvetica; pointer-events: none;">vida</text></g></g></g></svg>